<svg width="28" height="26" viewBox="0 0 28 26" fill="none" xmlns="http://www.w3.org/2000/svg">
<path d="M24 6.75H4C2.61929 6.75 1.5 7.86929 1.5 9.25V21.75C1.5 23.1307 2.61929 24.25 4 24.25H24C25.3807 24.25 26.5 23.1307 26.5 21.75V9.25C26.5 7.86929 25.3807 6.75 24 6.75Z" stroke="#2738F5" stroke-width="3" stroke-linecap="round" stroke-linejoin="round"/>
<path d="M19 24.25V4.25C19 3.58696 18.7366 2.95107 18.2678 2.48223C17.7989 2.01339 17.163 1.75 16.5 1.75H11.5C10.837 1.75 10.2011 2.01339 9.73223 2.48223C9.26339 2.95107 9 3.58696 9 4.25V24.25" stroke="#2738F5" stroke-width="3" stroke-linecap="round" stroke-linejoin="round"/>
</svg>
