<svg width="32" height="32" viewBox="0 0 32 32" fill="none" xmlns="http://www.w3.org/2000/svg">
<path fill-rule="evenodd" clip-rule="evenodd" d="M32 16C32 24.8366 24.8366 32 16 32C7.16344 32 0 24.8366 0 16C0 7.16344 7.16344 0 16 0C24.8366 0 32 7.16344 32 16ZM19 26V22C19.1391 20.7473 18.7799 19.4901 18 18.5C21 18.5 24 16.5 24 13C24.08 11.75 23.73 10.52 23 9.5C23.28 8.35 23.28 7.15 23 6C23 6 22 6 20 7.5C17.36 7 14.64 7 12 7.5C10 6 9 6 9 6C8.7 7.15 8.7 8.35 9 9.5C8.27187 10.5159 7.91847 11.7528 8 13C8 16.5 11 18.5 14 18.5C13.61 18.99 13.32 19.55 13.15 20.15C13.0712 20.4281 13.0182 20.7127 12.9909 20.9998C12.8583 21.0009 12.7236 21.0286 12.5946 21.0859C11.5846 21.5338 10.8964 21.6032 10.4155 21.5398C9.94226 21.4775 9.56252 21.2728 9.18395 20.9695C8.98919 20.8135 8.80331 20.6385 8.60039 20.4419L8.51137 20.3554C8.34062 20.1893 8.14952 20.0034 7.95725 19.8372C7.50283 19.4444 6.86538 19 6 19C5.44772 19 5 19.4477 5 20C5 20.5523 5.44772 21 6 21C6.13462 21 6.30842 21.0556 6.64931 21.3503C6.79328 21.4747 6.93556 21.613 7.10765 21.7802L7.20879 21.8784C7.41716 22.0803 7.66018 22.3115 7.93355 22.5305C8.49123 22.9772 9.20462 23.3975 10.1542 23.5227C10.9922 23.6331 11.9272 23.5024 13 23.0833V26H19ZM13 23.0833C13.133 23.0314 13.2681 22.975 13.4054 22.9141C13.9103 22.6903 14.138 22.0995 13.9141 21.5946C13.7475 21.2188 13.3775 20.9965 12.9909 20.9998C12.9594 21.332 12.9625 21.6674 13 22V23.0833Z" fill="#232323"/>
</svg>

